<svg width="22" height="22" viewBox="0 0 22 22" fill="none" xmlns="http://www.w3.org/2000/svg">
    <path fill-rule="evenodd" clip-rule="evenodd" d="M2.05619 19.8504C1.93733 19.7136 1.86169 19.5446 1.83885 19.3648C1.81601 19.185 1.84698 19.0024 1.92785 18.8402L10.1779 2.34021C10.2539 2.18767 10.3709 2.05935 10.5159 1.96965C10.6608 1.87996 10.8278 1.83244 10.9983 1.83244C11.1687 1.83244 11.3358 1.87996 11.4807 1.96965C11.6256 2.05935 11.7427 2.18767 11.8187 2.34021L20.0687 18.8402C20.1498 19.0024 20.1811 19.185 20.1584 19.365C20.1357 19.5449 20.0602 19.7141 19.9414 19.8511C19.8225 19.9881 19.6657 20.0867 19.4908 20.1346C19.3158 20.1824 19.1306 20.1773 18.9586 20.1199L11.9149 17.7714L11.9149 12.8333C11.9149 12.5902 11.8184 12.357 11.6465 12.1851C11.4745 12.0132 11.2414 11.9166 10.9983 11.9166C10.7552 11.9166 10.522 12.0132 10.3501 12.1851C10.1782 12.357 10.0816 12.5902 10.0816 12.8333L10.0816 17.7714L3.03794 20.1208C2.86598 20.1779 2.68095 20.1828 2.50621 20.1349C2.33147 20.0869 2.17487 19.9873 2.05619 19.8504Z" fill="#0969DA" />
</svg>