<svg width="22" height="22" viewBox="0 0 22 22" fill="none" xmlns="http://www.w3.org/2000/svg">
    <path d="M13.7505 6.41716L7.79213 12.3755C7.42745 12.7402 7.22258 13.2348 7.22258 13.7505C7.22258 14.2662 7.42745 14.7608 7.79213 15.1255C8.1568 15.4902 8.6514 15.695 9.16713 15.695C9.68285 15.695 10.1775 15.4902 10.5421 15.1255L16.5005 9.16716C17.2298 8.43782 17.6395 7.44861 17.6395 6.41716C17.6395 5.38571 17.2298 4.39651 16.5005 3.66716C15.7711 2.93782 14.7819 2.52808 13.7505 2.52808C12.719 2.52808 11.7298 2.93782 11.0005 3.66716L5.04213 9.6255C3.94811 10.7195 3.3335 12.2033 3.3335 13.7505C3.3335 15.2977 3.94811 16.7815 5.04213 17.8755C6.13614 18.9695 7.61995 19.5841 9.16713 19.5841C10.7143 19.5841 12.1981 18.9695 13.2921 17.8755L19.2505 11.9172" stroke="#686E7A" stroke-width="1.8" stroke-linecap="round" stroke-linejoin="round" />
</svg>