<svg width="24" height="24" viewBox="0 0 24 24" fill="none" xmlns="http://www.w3.org/2000/svg">
    <path d="M9 15H6C5.20435 15 4.44129 14.6839 3.87868 14.1213C3.31607 13.5587 3 12.7956 3 12V6C3 5.20435 3.31607 4.44129 3.87868 3.87868C4.44129 3.31607 5.20435 3 6 3H12C12.7956 3 13.5587 3.31607 14.1213 3.87868C14.6839 4.44129 15 5.20435 15 6V9" stroke="#0969DA" stroke-width="2" stroke-linecap="round" stroke-linejoin="round" />
    <path d="M3 12L5.296 9.70404C5.74795 9.25215 6.36089 8.99829 7 8.99829C7.63911 8.99829 8.25205 9.25215 8.704 9.70404L9 10M9 12C9 11.2044 9.31607 10.4413 9.87868 9.87872C10.4413 9.31611 11.2044 9.00004 12 9.00004H18C18.7956 9.00004 19.5587 9.31611 20.1213 9.87872C20.6839 10.4413 21 11.2044 21 12V18C21 18.7957 20.6839 19.5587 20.1213 20.1214C19.5587 20.684 18.7956 21 18 21H12C11.2044 21 10.4413 20.684 9.87868 20.1214C9.31607 19.5587 9 18.7957 9 18V12Z" stroke="#0969DA" stroke-width="2" stroke-linecap="round" stroke-linejoin="round" />
    <path d="M7 6V6.01M14 13.5V16.5L16.5 15L14 13.5Z" stroke="#0969DA" stroke-width="2" stroke-linecap="round" stroke-linejoin="round" />
</svg>