<svg xmlns="http://www.w3.org/2000/svg" width="24" height="24" viewBox="0 0 24 24" fill="none">
    <path d="M7 12H6.606C6.21094 11.9999 5.82469 12.1168 5.496 12.336L3 14V5C3 4.46957 3.21071 3.96086 3.58579 3.58579C3.96086 3.21071 4.46957 3 5 3H12C12.5304 3 13.0391 3.21071 13.4142 3.58579C13.7893 3.96086 14 4.46957 14 5V7" stroke="#A7ACB4" stroke-width="2" stroke-linecap="round" stroke-linejoin="round"/>
    <path d="M19 10H12C11.4696 10 10.9609 10.2107 10.5858 10.5858C10.2107 10.9609 10 11.4696 10 12V17C10 17.5304 10.2107 18.0391 10.5858 18.4142C10.9609 18.7893 11.4696 19 12 19H17.394C17.7891 18.9999 18.1753 19.1168 18.504 19.336L21 21V12C21 11.4696 20.7893 10.9609 20.4142 10.5858C20.0391 10.2107 19.5304 10 19 10Z" stroke="#A7ACB4" stroke-width="2" stroke-linecap="round" stroke-linejoin="round"/>
</svg>