<svg width="18" height="20" viewBox="0 0 18 20" fill="none" xmlns="http://www.w3.org/2000/svg">
    <path d="M16.534 10.6045C16.387 10.4372 16.306 10.2221 16.306 9.99946C16.306 9.77679 16.387 9.56174 16.534 9.39446L17.7073 8.07446C17.8366 7.93024 17.9169 7.74877 17.9366 7.55609C17.9564 7.36341 17.9146 7.16942 17.8173 7.00196L15.984 3.83029C15.8876 3.66302 15.7409 3.53043 15.5648 3.45142C15.3887 3.37241 15.1921 3.35102 15.0031 3.39029L13.2798 3.73862C13.0605 3.78393 12.8322 3.74741 12.638 3.63596C12.4438 3.5245 12.2971 3.34582 12.2256 3.13362L11.6665 1.45612C11.605 1.27405 11.4878 1.11592 11.3315 1.00406C11.1753 0.892207 10.9878 0.832294 10.7956 0.83279H7.12897C6.92908 0.822356 6.73126 0.877639 6.56574 0.990194C6.40022 1.10275 6.27609 1.26639 6.2123 1.45612L5.69897 3.13362C5.62747 3.34582 5.48078 3.5245 5.28657 3.63596C5.09237 3.74741 4.86409 3.78393 4.6448 3.73862L2.87564 3.39029C2.69648 3.36497 2.51383 3.39324 2.35071 3.47154C2.18758 3.54984 2.05128 3.67467 1.95897 3.83029L0.125637 7.00196C0.0258674 7.16755 -0.0189924 7.36045 -0.00252863 7.55308C0.0139352 7.7457 0.0908794 7.92819 0.217304 8.07446L1.38147 9.39446C1.52843 9.56174 1.60948 9.77679 1.60948 9.99946C1.60948 10.2221 1.52843 10.4372 1.38147 10.6045L0.217304 11.9245C0.0908794 12.0707 0.0139352 12.2532 -0.00252863 12.4458C-0.0189924 12.6385 0.0258674 12.8314 0.125637 12.997L1.95897 16.1686C2.05531 16.3359 2.202 16.4685 2.37812 16.5475C2.55424 16.6265 2.75081 16.6479 2.9398 16.6086L4.66314 16.2603C4.88242 16.215 5.1107 16.2515 5.30491 16.363C5.49911 16.4744 5.64581 16.6531 5.7173 16.8653L6.27647 18.5428C6.34025 18.7325 6.46438 18.8962 6.62991 19.0087C6.79543 19.1213 6.99324 19.1766 7.19314 19.1661H10.8598C11.052 19.1666 11.2394 19.1067 11.3957 18.9949C11.552 18.883 11.6691 18.7249 11.7306 18.5428L12.2898 16.8653C12.3613 16.6531 12.508 16.4744 12.7022 16.363C12.8964 16.2515 13.1247 16.215 13.344 16.2603L15.0673 16.6086C15.2563 16.6479 15.4529 16.6265 15.629 16.5475C15.8051 16.4685 15.9518 16.3359 16.0481 16.1686L17.8815 12.997C17.9788 12.8295 18.0206 12.6355 18.0008 12.4428C17.9811 12.2501 17.9008 12.0687 17.7715 11.9245L16.534 10.6045ZM15.1681 11.8328L15.9015 12.6578L14.7281 14.6928L13.6465 14.4728C12.9863 14.3378 12.2995 14.45 11.7165 14.7879C11.1335 15.1259 10.6949 15.6661 10.484 16.3061L10.1356 17.3328H7.78897L7.45897 16.2878C7.248 15.6478 6.8094 15.1076 6.22643 14.7696C5.64345 14.4317 4.95667 14.3195 4.29647 14.4545L3.2148 14.6745L2.02314 12.6486L2.75647 11.8236C3.20743 11.3194 3.45674 10.6667 3.45674 9.99029C3.45674 9.31385 3.20743 8.66114 2.75647 8.15696L2.02314 7.33196L3.19647 5.31529L4.27814 5.53529C4.93834 5.67024 5.62511 5.5581 6.20809 5.22014C6.79107 4.88218 7.22967 4.34194 7.44064 3.70196L7.78897 2.66612H10.1356L10.484 3.71112C10.6949 4.3511 11.1335 4.89135 11.7165 5.2293C12.2995 5.56726 12.9863 5.67941 13.6465 5.54446L14.7281 5.32446L15.9015 7.35946L15.1681 8.18446C14.7222 8.68749 14.476 9.33642 14.476 10.0086C14.476 10.6808 14.7222 11.3298 15.1681 11.8328ZM8.96231 6.33279C8.23711 6.33279 7.52819 6.54784 6.92521 6.95073C6.32223 7.35363 5.85227 7.92629 5.57475 8.59628C5.29722 9.26628 5.22461 10.0035 5.36609 10.7148C5.50757 11.4261 5.85679 12.0794 6.36958 12.5922C6.88237 13.105 7.53571 13.4542 8.24697 13.5957C8.95824 13.7371 9.69548 13.6645 10.3655 13.387C11.0355 13.1095 11.6081 12.6395 12.011 12.0365C12.4139 11.4336 12.629 10.7247 12.629 9.99946C12.629 9.027 12.2427 8.09436 11.555 7.40673C10.8674 6.7191 9.93477 6.33279 8.96231 6.33279ZM8.96231 11.8328C8.59971 11.8328 8.24525 11.7253 7.94376 11.5238C7.64227 11.3224 7.40729 11.036 7.26853 10.701C7.12976 10.366 7.09346 9.99742 7.1642 9.64179C7.23494 9.28616 7.40955 8.95949 7.66594 8.70309C7.92234 8.4467 8.24901 8.27209 8.60464 8.20135C8.96027 8.13061 9.32889 8.16692 9.66389 8.30568C9.99889 8.44444 10.2852 8.67942 10.4867 8.98091C10.6881 9.2824 10.7956 9.63686 10.7956 9.99946C10.7956 10.4857 10.6025 10.952 10.2587 11.2958C9.91485 11.6396 9.44853 11.8328 8.96231 11.8328Z" fill="#A7ACB4" />
</svg>