<svg xmlns="http://www.w3.org/2000/svg" width="36" height="36" viewBox="0 0 36 36" fill="none">
    <rect width="36" height="36" rx="18" fill="#686E7A"/>
    <rect width="36" height="36" rx="18" fill="url(#paint0_linear_12_4663)" fill-opacity="0.2" style="mix-blend-mode:overlay"/>
    <path d="M18 19.35C20.396 19.35 22.575 20.0266 24.178 20.9792C24.978 21.457 25.662 22.0176 26.156 22.627C26.642 23.2276 27 23.9452 27 24.7125C27 25.5364 26.589 26.1857 25.997 26.6488C25.437 27.0876 24.698 27.3781 23.913 27.5809C22.335 27.9875 20.229 28.125 18 28.125C15.771 28.125 13.665 27.9885 12.087 27.5809C11.302 27.3781 10.563 27.0876 10.003 26.6488C9.41 26.1847 9 25.5364 9 24.7125C9 23.9452 9.358 23.2276 9.844 22.627C10.338 22.0176 11.021 21.457 11.822 20.9792C13.425 20.0266 15.605 19.35 18 19.35ZM18 7.875C19.3261 7.875 20.5979 8.38861 21.5355 9.30285C22.4732 10.2171 23 11.4571 23 12.75C23 14.0429 22.4732 15.2829 21.5355 16.1971C20.5979 17.1114 19.3261 17.625 18 17.625C16.6739 17.625 15.4021 17.1114 14.4645 16.1971C13.5268 15.2829 13 14.0429 13 12.75C13 11.4571 13.5268 10.2171 14.4645 9.30285C15.4021 8.38861 16.6739 7.875 18 7.875Z" fill="white"/>
    <defs>
        <linearGradient id="paint0_linear_12_4663" x1="18" y1="0" x2="18" y2="36" gradientUnits="userSpaceOnUse">
            <stop stop-color="white" stop-opacity="0"/>
            <stop offset="1" stop-color="white"/>
        </linearGradient>
    </defs>
</svg>