<svg width="20" height="20" viewBox="0 0 20 20" fill="none" xmlns="http://www.w3.org/2000/svg">
    <path d="M17.5 9.16667V6.66667C17.5 6.22464 17.3244 5.80072 17.0118 5.48816C16.6993 5.17559 16.2754 5 15.8333 5H10.8333M10.8333 5L13.3333 7.5M10.8333 5L13.3333 2.5M2.5 10.8333V13.3333C2.5 13.7754 2.67559 14.1993 2.98816 14.5118C3.30072 14.8244 3.72464 15 4.16667 15H9.16667M9.16667 15L6.66667 12.5M9.16667 15L6.66667 17.5M2.5 3.33333C2.5 3.11232 2.5878 2.90036 2.74408 2.74408C2.90036 2.5878 3.11232 2.5 3.33333 2.5H6.66667C6.88768 2.5 7.09964 2.5878 7.25592 2.74408C7.4122 2.90036 7.5 3.11232 7.5 3.33333V6.66667C7.5 6.88768 7.4122 7.09964 7.25592 7.25592C7.09964 7.4122 6.88768 7.5 6.66667 7.5H3.33333C3.11232 7.5 2.90036 7.4122 2.74408 7.25592C2.5878 7.09964 2.5 6.88768 2.5 6.66667V3.33333ZM12.5 13.3333C12.5 13.1123 12.5878 12.9004 12.7441 12.7441C12.9004 12.5878 13.1123 12.5 13.3333 12.5H16.6667C16.8877 12.5 17.0996 12.5878 17.2559 12.7441C17.4122 12.9004 17.5 13.1123 17.5 13.3333V16.6667C17.5 16.8877 17.4122 17.0996 17.2559 17.2559C17.0996 17.4122 16.8877 17.5 16.6667 17.5H13.3333C13.1123 17.5 12.9004 17.4122 12.7441 17.2559C12.5878 17.0996 12.5 16.8877 12.5 16.6667V13.3333Z" stroke="#A7ACB4" stroke-width="2" stroke-linecap="round" stroke-linejoin="round" />
</svg>